<?xml version="1.0" encoding="UTF-8" standalone="no" ?>
<!DOCTYPE svg PUBLIC "-//W3C//DTD SVG 1.1//EN" "http://www.w3.org/Graphics/SVG/1.1/DTD/svg11.dtd">
<svg xmlns="http://www.w3.org/2000/svg" xmlns:xlink="http://www.w3.org/1999/xlink" version="1.1" width="1080" height="1080" viewBox="0 0 1080 1080" xml:space="preserve">
<desc>Created with Fabric.js 5.2.4</desc>
<defs>
</defs>
<g transform="matrix(1 0 0 1 540 540)" id="a118596c-1bef-4b7d-98c5-83aaac06c416"  >
<rect style="stroke: none; stroke-width: 1; stroke-dasharray: none; stroke-linecap: butt; stroke-dashoffset: 0; stroke-linejoin: miter; stroke-miterlimit: 4; fill: rgb(255,255,255); fill-rule: nonzero; opacity: 1; visibility: hidden;" vector-effect="non-scaling-stroke"  x="-540" y="-540" rx="0" ry="0" width="1080" height="1080" />
</g>
<g transform="matrix(1 0 0 1 540 540)" id="83d0037e-89b7-4ea3-a7e5-3810d2eb83e3"  >
</g>
<g transform="matrix(6.41 0 0 6.41 539 539)"  >
<g style=""   >
		<g transform="matrix(0.02 0 0 0.02 0 0)"  >
<path style="stroke: none; stroke-width: 1; stroke-dasharray: none; stroke-linecap: butt; stroke-dashoffset: 0; stroke-linejoin: miter; stroke-miterlimit: 4; fill: rgb(255,255,255); fill-rule: nonzero; opacity: 1;" vector-effect="non-scaling-stroke"  transform=" translate(-511.95, -511.96)" d="M 923 283.6 C 909.5959595429538 252.56369325169447 890.2686483923688 224.43888897632655 866.0999999999999 200.79999999999995 C 841.9131991179335 177.09059621287292 813.3963033190823 158.2490757743463 782.0999999999999 145.29999999999998 C 749.6476657791607 131.8193056023517 714.8408106908246 124.91911850964448 679.7 125.00000000000006 C 630.4000000000001 125 582.3000000000001 138.5 540.5 164 C 530.5 170.1 521 176.8 512 184.1 C 503 176.79999999999998 493.5 170.1 483.5 164 C 441.7 138.5 393.6 125 344.3 125 C 308.8 125 274.4 131.8 241.9 145.3 C 210.5 158.3 182.2 177 157.9 200.8 C 133.69966721559388 224.41222403380033 114.367789663527 252.54367326598197 101.00000000000003 283.59999999999997 C 87.1 315.90000000000003 80 350.20000000000005 80 385.5 C 80 418.8 86.8 453.5 100.3 488.8 C 111.6 518.3 127.8 548.9 148.5 579.8 C 181.3 628.6999999999999 226.4 679.6999999999999 282.4 731.4 C 375.2 817.1 467.09999999999997 876.3 471 878.7 L 494.7 893.9000000000001 C 505.2 900.6000000000001 518.7 900.6000000000001 529.2 893.9000000000001 L 552.9000000000001 878.7 C 556.8000000000001 876.2 648.6000000000001 817.1 741.5000000000001 731.4000000000001 C 797.5000000000001 679.7 842.6000000000001 628.7 875.4000000000001 579.8000000000001 C 896.1000000000001 548.9000000000001 912.4000000000001 518.3000000000001 923.6000000000001 488.80000000000007 C 937.1000000000001 453.50000000000006 943.9000000000001 418.80000000000007 943.9000000000001 385.50000000000006 C 944.0000000000001 350.20000000000005 936.9000000000001 315.9000000000001 923.0000000000001 283.6 z M 512 814.8 C 512 814.8 156 586.7 156 385.5 C 156 283.6 240.3 201 344.3 201 C 417.4 201 480.8 241.8 512 301.4 C 543.2 241.8 606.6 201 679.7 201 C 783.7 201 868 283.6 868 385.5 C 868 586.7 512 814.8 512 814.8 z" stroke-linecap="round" />
</g>
		<g transform="matrix(0.02 0 0 0.02 0 -0.07)"  >
<path style="stroke: none; stroke-width: 1; stroke-dasharray: none; stroke-linecap: butt; stroke-dashoffset: 0; stroke-linejoin: miter; stroke-miterlimit: 4; fill: rgb(0,0,0); fill-rule: nonzero; opacity: 1;" vector-effect="non-scaling-stroke"  transform=" translate(-512, -507.9)" d="M 679.7 201 C 606.6 201 543.2 241.8 512 301.4 C 480.8 241.8 417.4 201 344.3 201 C 240.3 201 156 283.6 156 385.5 C 156 586.7 512 814.8 512 814.8 C 512 814.8 868 586.6999999999999 868 385.49999999999994 C 868 283.6 783.7 201 679.7 201 z" stroke-linecap="round" />
</g>
</g>
</g>
</svg>